<svg width="237" height="226" viewBox="0 0 237 226" fill="none" xmlns="http://www.w3.org/2000/svg">
<path d="M184.804 40.4974C192.478 38.8878 199.109 45.8931 196.721 53.0882L180.16 103.001C177.779 110.176 168.21 112.16 162.923 106.574L126.249 67.827C120.962 62.2414 123.915 53.2678 131.568 51.6627L184.804 40.4974Z" fill="#6C63FF"/>
<path d="M156.096 125.644C163.77 124.034 170.401 131.039 168.013 138.235L151.452 188.147C149.071 195.322 139.502 197.306 134.215 191.72L97.5409 152.973C92.254 147.388 95.207 138.414 102.86 136.809L156.096 125.644Z" fill="#6C63FF"/>
<path d="M94.287 59.9303C101.961 58.3207 108.592 65.326 106.204 72.5211L89.6428 122.433C87.2619 129.609 77.6931 131.593 72.4063 126.007L35.7321 87.2599C30.4452 81.6743 33.3982 72.7007 41.0513 71.0956L94.287 59.9303Z" fill="#6C63FF"/>
</svg>
